<svg width="24" height="24" viewBox="0 0 24 24" fill="none" xmlns="http://www.w3.org/2000/svg">
<path d="M18.25 6H15.25V4.125C15.25 3.29766 14.5773 2.625 13.75 2.625H6.25C5.42266 2.625 4.75 3.29766 4.75 4.125V6H1.75C1.33516 6 1 6.33516 1 6.75V7.5C1 7.60313 1.08437 7.6875 1.1875 7.6875H2.60312L3.18203 19.9453C3.21953 20.7445 3.88047 21.375 4.67969 21.375H15.3203C16.1219 21.375 16.7805 20.7469 16.818 19.9453L17.3969 7.6875H18.8125C18.9156 7.6875 19 7.60313 19 7.5V6.75C19 6.33516 18.6648 6 18.25 6ZM13.5625 6H6.4375V4.3125H13.5625V6Z" fill="black"/>
</svg>
