<svg width="32" height="32" viewBox="0 0 32 32" fill="none" xmlns="http://www.w3.org/2000/svg">
<rect x="1" y="1" width="30" height="30" rx="15" fill="white" stroke="black" stroke-width="2"/>
<path d="M25.9734 23.6875C24.688 21.4316 22.6809 19.6738 20.2752 18.6972C21.4716 17.7999 22.3552 16.549 22.8011 15.1216C23.247 13.6942 23.2325 12.1627 22.7596 10.7441C22.2867 9.32539 21.3794 8.09147 20.1663 7.21709C18.9531 6.3427 17.4956 5.87219 16.0002 5.87219C14.5048 5.87219 13.0473 6.3427 11.8342 7.21709C10.621 8.09147 9.71375 9.32539 9.24086 10.7441C8.76797 12.1627 8.75343 13.6942 9.19932 15.1216C9.6452 16.549 10.5289 17.7999 11.7252 18.6972C9.31953 19.6738 7.31245 21.4316 6.0271 23.6875C5.94745 23.8156 5.89437 23.9583 5.87101 24.1073C5.84764 24.2563 5.85447 24.4085 5.89109 24.5548C5.92771 24.7011 5.99337 24.8385 6.08416 24.9589C6.17496 25.0794 6.28904 25.1803 6.41963 25.2557C6.55021 25.3312 6.69463 25.3796 6.8443 25.3981C6.99397 25.4166 7.14583 25.4049 7.29087 25.3635C7.4359 25.3222 7.57114 25.2521 7.68854 25.1574C7.80595 25.0628 7.90312 24.9455 7.97429 24.8125C9.67304 21.8762 12.673 20.125 16.0002 20.125C19.3274 20.125 22.3274 21.8772 24.0262 24.8125C24.1804 25.0605 24.425 25.2388 24.7083 25.3097C24.9916 25.3806 25.2914 25.3386 25.5443 25.1925C25.7972 25.0464 25.9833 24.8077 26.0634 24.5268C26.1434 24.246 26.1112 23.945 25.9734 23.6875ZM11.1252 13C11.1252 12.0358 11.4111 11.0933 11.9468 10.2916C12.4825 9.4899 13.2439 8.86506 14.1346 8.49609C15.0254 8.12711 16.0056 8.03057 16.9513 8.21867C17.8969 8.40677 18.7656 8.87107 19.4474 9.55285C20.1291 10.2346 20.5934 11.1033 20.7816 12.0489C20.9697 12.9946 20.8731 13.9748 20.5041 14.8656C20.1352 15.7564 19.5103 16.5177 18.7086 17.0534C17.9069 17.5891 16.9644 17.875 16.0002 17.875C14.7078 17.8735 13.4686 17.3594 12.5547 16.4455C11.6408 15.5316 11.1267 14.2925 11.1252 13Z" fill="black"/>
</svg>
