<svg width="32" height="32" viewBox="0 0 32 32" fill="none" xmlns="http://www.w3.org/2000/svg">
<path d="M12.0537 28.72C13.3337 29.1067 14.627 29.3334 16.0003 29.3334C19.5365 29.3334 22.9279 27.9286 25.4284 25.4281C27.9289 22.9276 29.3337 19.5362 29.3337 16C29.3337 14.2491 28.9888 12.5152 28.3187 10.8976C27.6487 9.2799 26.6665 7.81004 25.4284 6.57193C24.1903 5.33382 22.7204 4.35169 21.1028 3.68163C19.4851 3.01156 17.7513 2.66669 16.0003 2.66669C14.2494 2.66669 12.5156 3.01156 10.8979 3.68163C9.2802 4.35169 7.81035 5.33382 6.57223 6.57193C4.07175 9.07241 2.66699 12.4638 2.66699 16C2.66699 21.6667 6.22699 26.5334 11.2537 28.4534C11.1337 27.4134 11.0137 25.6934 11.2537 24.5067L12.787 17.92C12.787 17.92 12.4003 17.1467 12.4003 15.92C12.4003 14.08 13.547 12.7067 14.8537 12.7067C16.0003 12.7067 16.5337 13.5467 16.5337 14.6267C16.5337 15.7734 15.7737 17.4134 15.387 18.9867C15.1603 20.2934 16.0803 21.44 17.4137 21.44C19.787 21.44 21.627 18.9067 21.627 15.3334C21.627 12.1334 19.3337 9.94669 16.0403 9.94669C12.2803 9.94669 10.067 12.7467 10.067 15.6934C10.067 16.84 10.4403 18 11.0537 18.76C11.1737 18.84 11.1737 18.9467 11.1337 19.1467L10.747 20.6C10.747 20.8267 10.6003 20.9067 10.3737 20.7467C8.66699 20 7.68033 17.5734 7.68033 15.6134C7.68033 11.4 10.667 7.57335 16.427 7.57335C21.0137 7.57335 24.587 10.8667 24.587 15.24C24.587 19.8267 21.747 23.5067 17.6803 23.5067C16.387 23.5067 15.1203 22.8134 14.667 22L13.7737 25.16C13.467 26.3067 12.627 27.84 12.0537 28.76V28.72Z" fill="black"/>
</svg>
